<svg width="106" height="28" viewBox="0 0 106 28" fill="none" xmlns="http://www.w3.org/2000/svg">
<path d="M51.1112 7.58035C50.2264 7.58035 49.7418 7.66613 49.0283 8.01345C47.7167 8.62021 46.7474 9.60568 45.8916 11.1958L45.607 11.6875L45.6358 10.7899C45.6647 10.2982 45.6936 9.40063 45.7204 8.76458L45.7493 7.63684H45.5492C45.3203 7.63684 37.791 9.17048 37.5621 9.25836C37.4198 9.31694 37.3909 9.37344 37.3909 9.75005C37.3909 10.1267 37.4198 10.1831 37.5621 10.2124C37.6466 10.2417 37.989 10.2982 38.3313 10.3568C38.9871 10.4719 39.1871 10.5891 39.4717 10.9636C39.9852 11.6289 40.0698 12.8445 40.0698 17.9079C40.0698 22.0464 39.9852 24.1303 39.7852 24.7664C39.5563 25.5468 39.1294 25.9527 38.387 26.0971C38.1581 26.1556 37.8446 26.2121 37.7023 26.2414L37.4466 26.3L37.4177 26.821C37.3889 27.1976 37.4177 27.3713 37.5023 27.4278C37.56 27.4571 40.1255 27.4863 43.2065 27.4863L48.8262 27.457L48.855 26.8503C48.855 26.5323 48.855 26.2435 48.8262 26.2435C48.3993 26.2435 47.0588 26.0699 46.8299 25.9548C46.203 25.6953 45.8895 25.1158 45.7451 23.9295C45.6029 22.5695 45.4894 19.1256 45.5451 16.347C45.6029 13.512 45.6029 13.512 45.774 13.309C46.1741 12.8759 47.2011 12.5286 48.1415 12.5286C48.8839 12.5286 49.6531 12.7316 50.4512 13.1082C50.8513 13.3111 51.1937 13.4262 51.2493 13.4262C51.3628 13.3969 53.1879 8.44864 53.1879 8.21849C53.194 7.92767 52.1382 7.58035 51.1112 7.58035Z" fill="white"/>
<path d="M37.4198 16.1755C37.0197 12.7608 35.5947 10.2731 33.2272 8.85455C30.604 7.29161 26.6383 7.20583 23.815 8.6516C21.761 9.69355 20.1071 11.6896 19.3647 14.0057C18.5954 16.3784 18.5954 19.5043 19.3647 21.9062C19.8493 23.4692 20.5051 24.5969 21.5321 25.6096C22.7592 26.8545 24.3553 27.6349 26.2093 27.8964C26.8651 27.9822 28.948 27.9822 29.6327 27.8964C29.9461 27.8378 30.5174 27.7228 30.8597 27.637C34.1965 26.6536 36.4794 24.0487 37.2486 20.3454C37.4487 19.4164 37.5353 17.2174 37.4198 16.1755ZM28.9789 26.4193C26.8961 27.0553 25.4133 25.03 24.8441 20.835C24.6441 19.475 24.6729 15.7716 24.8441 14.238C25.2442 10.8527 26.2712 9.14538 27.8963 9.14538C28.6387 9.14538 29.0367 9.31903 29.6079 9.8986C30.9773 11.2879 31.6042 13.9493 31.6042 18.1171C31.6042 21.4438 31.2619 23.5277 30.5483 24.9463C30.1771 25.6075 29.5193 26.2456 28.9789 26.4193Z" fill="white"/>
<path d="M10.0391 2.57351H12.4355C15.1741 2.57351 15.6299 2.6321 16.5992 3.12378C17.9974 3.81842 19.0244 5.20769 19.9359 7.63893C20.3071 8.6223 20.3071 8.6223 21.1052 8.36286L21.6476 8.1892L21.5898 4.63023C21.561 2.66348 21.5053 0.926883 21.5053 0.782516L21.4476 0.464488L10.9795 0.435196C5.21753 0.435196 0.398017 0.435196 0.255721 0.464488L0 0.523071L0.0288717 1.15913L0.0577434 1.79518L0.85584 1.88097C1.88285 1.99604 2.50978 2.31407 2.88098 2.83505C3.70795 4.05066 3.85025 5.72867 3.85025 13.6291C3.85025 22.0506 3.67908 24.1052 2.88098 25.1451C2.4809 25.6953 2.13857 25.869 1.19818 26.0427C-0.0288717 26.2749 0.0288717 26.2456 0.0288717 26.8817C0.0288717 27.229 0.0577434 27.4319 0.113425 27.4612C0.255721 27.5198 13.6336 27.5198 13.7759 27.4612C13.9471 27.4026 13.9471 26.39 13.7759 26.3042C13.6914 26.2749 13.2624 26.1891 12.7778 26.1012C12.2932 26.0155 11.7797 25.8983 11.6085 25.8418C10.7238 25.4652 10.2391 24.3939 10.068 22.4565C9.92568 21.0672 9.83906 18.4916 9.83906 16.6106V14.8741L10.666 14.9033C12.4066 14.9619 13.2892 15.0477 13.6604 15.2214C14.4585 15.5687 15.0875 16.5521 15.401 17.9413L15.5722 18.6653L16.1991 18.6946L16.826 18.7239V9.4634L16.1991 9.49269L15.5722 9.52198L15.401 10.2459C15.0587 11.6645 14.4874 12.5328 13.6336 12.9366C13.2913 13.1103 13.0356 13.1395 12.2354 13.196C11.693 13.2253 10.9238 13.2546 10.5526 13.2546H9.83906V10.9678C9.83906 8.68089 9.95249 3.79122 10.0391 3.038V2.57351V2.57351Z" fill="white"/>
<path d="M105.046 18.8954C104.419 17.594 103.22 16.7257 100.766 15.6838C98.7701 14.8448 97.7431 14.2359 97.145 13.5706C96.6315 13.0203 96.4892 12.5579 96.547 11.7482C96.6047 10.995 96.7759 10.5326 97.2605 10.0116C97.8586 9.34623 98.7144 9.11399 99.7126 9.34623C101.338 9.69355 102.394 10.8506 103.307 13.2818C103.621 14.1501 103.678 14.1794 104.247 13.9472L104.619 13.8028V12.7901C104.619 12.2399 104.59 11.0828 104.561 10.2145L104.503 8.6516L104.219 8.53652C102.707 7.90046 99.8549 7.49456 98.0009 7.66822C95.8912 7.87117 94.3218 8.53652 93.1236 9.80863C91.9254 11.0535 91.3831 12.5286 91.4986 14.2652C91.5831 15.7131 91.9832 16.7257 92.8679 17.6505C93.666 18.4895 94.3507 18.8954 96.3181 19.6758C99.4548 20.9207 100.311 21.6719 100.282 23.2055C100.282 24.5069 99.5971 25.4631 98.37 25.8962C97.9143 26.0406 96.8006 26.0406 96.2026 25.8962C94.6332 25.4903 93.435 24.1031 92.4101 21.5547L92.1544 20.8894L91.8409 20.9187C91.6697 20.9187 91.4408 20.9772 91.3274 21.0337L91.1273 21.1488L91.1562 22.2766C91.1562 22.8833 91.1851 24.1868 91.214 25.1409L91.2717 26.9068L91.614 27.0511C92.3276 27.3692 94.495 27.8316 95.8355 27.978C96.0067 28.0073 96.9202 28.0073 97.8895 27.978C99.5434 27.9487 99.6857 27.9487 100.513 27.7186C102.994 27.0532 104.592 25.664 105.305 23.5508C105.534 22.8854 105.561 22.7117 105.59 21.7284C105.559 20.3998 105.446 19.7344 105.046 18.8954Z" fill="white"/>
<path d="M85.9078 8.36286C83.8249 7.29161 80.6036 7.37949 78.2629 8.53652C76.0378 9.63706 74.4972 11.4887 73.6414 14.0915C73.1856 15.4515 73.0433 16.5228 73.099 18.2866C73.1279 19.3871 73.1836 19.9646 73.2991 20.4856C74.1838 24.4797 76.8647 27.1704 80.6284 27.865C81.4553 28.0094 83.3382 28.0094 84.1651 27.865C85.3633 27.6621 86.7327 27.1118 87.6153 26.5051C88.6712 25.7811 89.7539 24.6827 89.7539 24.3354C89.7539 24.1324 89.3827 23.6407 89.2404 23.6407C89.1826 23.6407 88.8692 23.7851 88.5846 23.988C87.5576 24.6827 86.5594 24.9421 85.1612 24.9421C83.2495 24.9421 82.0513 24.4504 80.8263 23.2055C80.284 22.6553 80.0571 22.3665 79.7993 21.8162C79.2013 20.6299 78.8589 19.2406 78.8012 17.6777L78.7723 17.0124L84.392 16.9831L90.0117 16.9538L90.0405 16.5772C90.0405 16.3742 90.0405 15.8239 89.9828 15.3323C89.6446 11.9511 88.2464 9.57638 85.9078 8.36286ZM80.2613 15.3929L78.8342 15.4222V15.1042C78.8342 14.9305 78.8919 14.4681 78.9476 14.0915C79.4322 10.995 80.5727 9.14328 81.9998 9.14328C83.3114 9.14328 84.1095 10.9657 84.2806 14.3238L84.3384 15.2779L83.0268 15.3364C82.2864 15.3364 81.0305 15.3657 80.2613 15.3929Z" fill="white"/>
<path d="M65.5718 8.01554C65.116 7.92976 64.7159 7.90047 63.8601 7.92976C62.5485 7.98834 61.6638 8.162 60.6656 8.6244C60.3522 8.76876 60.0676 8.91313 60.0387 8.91313C60.0098 8.91313 60.0098 6.91709 60.0387 4.45657C60.0676 0.983374 60.0676 0 59.981 0C59.7252 0 51.9938 1.50435 51.9093 1.56294C51.8515 1.62152 51.8247 1.79518 51.8247 2.02533C51.8536 2.45844 51.7958 2.43123 52.7383 2.63209C53.0229 2.69068 53.3652 2.83505 53.4807 2.92083C53.7942 3.15307 54.052 3.64476 54.2499 4.3394C54.3922 4.88967 54.4211 5.29348 54.4788 9.05541C54.5366 12.9031 54.5366 16.868 54.4211 24.1031L54.3634 27.1118L54.9057 27.2269C55.7038 27.4006 58.0156 27.8065 58.756 27.8922C59.8675 28.0073 62.4351 27.978 63.262 27.863C66.8277 27.3127 69.5086 25.2288 70.7625 22.0171C71.1048 21.1781 71.4183 19.8474 71.5317 18.8912C71.674 17.7635 71.5894 15.4766 71.3894 14.5497C70.6491 11.0535 68.4816 8.6223 65.5718 8.01554ZM60.1521 26.1577C60.0676 25.8983 59.9521 16.868 59.981 13.2797L60.0098 10.4719L60.5233 10.3275C60.8657 10.2417 61.2658 10.1831 61.7215 10.1831C62.3773 10.1831 62.4351 10.2124 62.9774 10.4719C64.289 11.1372 65.1737 12.7587 65.6006 15.2172C65.7429 16.1441 65.7718 18.6318 65.6295 19.7323C65.2872 22.423 64.4313 24.5927 63.262 25.6347C62.8063 26.0406 62.3773 26.2707 61.8349 26.3879C61.4349 26.4737 61.3214 26.4737 60.579 26.4172C60.2944 26.3607 60.2387 26.3314 60.1521 26.1577Z" fill="white"/>
</svg>
